<svg xmlns="http://www.w3.org/2000/svg" version="1.1" xmlns:xlink="http://www.w3.org/1999/xlink" viewBox="0 0 200 200"><rect width="200" height="200" fill="url('#gradient')"></rect><defs><linearGradient id="gradient" gradientTransform="rotate(45 0.5 0.5)"><stop offset="0%" stop-color="#90ffff"></stop><stop offset="100%" stop-color="#abc7db"></stop></linearGradient></defs><g><g fill="#8d8c39" transform="matrix(1.5634913902790737,0,0,1.5634913902790737,9.678546917538114,108.5510475179077)" stroke="#2a4a46" stroke-width="0"><path d="M10.11-14.22L12.09-5.30L13.72-14.22L17.12-14.22L14.10 0L10.55 0L8.64-8.11L6.78 0L3.23 0L0.21-14.22L3.61-14.22L5.24-5.30L7.20-14.22L10.11-14.22ZM23.12 0.20L23.12 0.20Q20.68 0.20 19.18-1.25Q17.68-2.71 17.68-5.03L17.68-5.03L17.68-5.30Q17.68-6.92 18.28-8.16Q18.88-9.40 20.03-10.08Q21.18-10.76 22.76-10.76L22.76-10.76Q24.99-10.76 26.28-9.38Q27.57-8.00 27.57-5.53L27.57-5.53L27.57-4.25L21.03-4.25Q21.20-3.36 21.80-2.85Q22.39-2.34 23.34-2.34L23.34-2.34Q24.90-2.34 25.78-3.44L25.78-3.44L27.29-1.66Q26.67-0.81 25.54-0.31Q24.41 0.20 23.12 0.20ZM22.74-8.22L22.74-8.22Q21.30-8.22 21.03-6.31L21.03-6.31L24.35-6.31L24.35-6.56Q24.37-7.35 23.95-7.79Q23.53-8.22 22.74-8.22ZM38.13 0L34.84 0Q34.67-0.32 34.53-0.95L34.53-0.95Q33.62 0.20 31.99 0.20L31.99 0.20Q30.50 0.20 29.45-0.71Q28.41-1.61 28.41-2.98L28.41-2.98Q28.41-4.70 29.68-5.58Q30.95-6.46 33.37-6.46L33.37-6.46L34.38-6.46L34.38-7.01Q34.38-8.47 33.13-8.47L33.13-8.47Q31.95-8.47 31.95-7.31L31.95-7.31L28.66-7.31Q28.66-8.85 29.97-9.80Q31.27-10.76 33.29-10.76Q35.31-10.76 36.48-9.78Q37.66-8.79 37.69-7.07L37.69-7.07L37.69-2.39Q37.71-0.94 38.13-0.17L38.13-0.17L38.13 0ZM32.78-2.15L32.78-2.15Q33.40-2.15 33.80-2.41Q34.21-2.68 34.38-3.01L34.38-3.01L34.38-4.70L33.43-4.70Q31.71-4.70 31.71-3.15L31.71-3.15Q31.71-2.71 32.01-2.43Q32.31-2.15 32.78-2.15ZM40.05-13.19L43.34-13.19L43.34-10.57L45.08-10.57L45.08-8.28L43.34-8.28L43.34-3.45Q43.34-2.85 43.55-2.62Q43.77-2.38 44.40-2.38L44.40-2.38Q44.89-2.38 45.22-2.44L45.22-2.44L45.22-0.09Q44.34 0.20 43.37 0.20L43.37 0.20Q41.67 0.20 40.86-0.61Q40.05-1.41 40.05-3.04L40.05-3.04L40.05-8.28L38.70-8.28L38.70-10.57L40.05-10.57L40.05-13.19ZM49.59-15L49.59-9.43Q50.64-10.76 52.29-10.76L52.29-10.76Q54.03-10.76 54.92-9.73Q55.81-8.69 55.83-6.67L55.83-6.67L55.83 0L52.53 0L52.53-6.59Q52.53-7.43 52.19-7.83Q51.85-8.22 51.03-8.22L51.03-8.22Q50.01-8.22 49.59-7.58L49.59-7.58L49.59 0L46.30 0L46.30-15L49.59-15ZM62.77 0.20L62.77 0.20Q60.34 0.20 58.84-1.25Q57.33-2.71 57.33-5.03L57.33-5.03L57.33-5.30Q57.33-6.92 57.93-8.16Q58.54-9.40 59.69-10.08Q60.84-10.76 62.42-10.76L62.42-10.76Q64.65-10.76 65.94-9.38Q67.23-8.00 67.23-5.53L67.23-5.53L67.23-4.25L60.68-4.25Q60.86-3.36 61.46-2.85Q62.05-2.34 63.00-2.34L63.00-2.34Q64.56-2.34 65.44-3.44L65.44-3.44L66.94-1.66Q66.33-0.81 65.20-0.31Q64.07 0.20 62.77 0.20ZM62.40-8.22L62.40-8.22Q60.96-8.22 60.68-6.31L60.68-6.31L64.00-6.31L64.00-6.56Q64.02-7.35 63.60-7.79Q63.18-8.22 62.40-8.22ZM75-10.64L74.94-7.59L73.86-7.67Q72.30-7.67 71.87-6.69L71.87-6.69L71.87 0L68.57 0L68.57-10.57L71.66-10.57L71.77-9.21Q72.60-10.76 74.08-10.76L74.08-10.76Q74.61-10.76 75-10.64L75-10.64ZM90.17 0L89.34-2.66L84.64-2.66L83.82 0L80.16 0L85.37-14.22L88.59-14.22L93.85 0L90.17 0ZM86.98-10.23L85.46-5.30L88.52-5.30L86.98-10.23ZM104.07-5.36L104.07-5.21Q104.07-2.74 102.96-1.27Q101.86 0.20 99.97 0.20L99.97 0.20Q98.52 0.20 97.58-0.87L97.58-0.87L97.58 4.06L94.29 4.06L94.29-10.57L97.36-10.57L97.46-9.59Q98.41-10.76 99.95-10.76L99.95-10.76Q101.90-10.76 102.99-9.32Q104.07-7.88 104.07-5.36L104.07-5.36ZM100.78-5.06L100.78-5.41Q100.78-8.22 99.14-8.22L99.14-8.22Q97.97-8.22 97.58-7.38L97.58-7.38L97.58-3.22Q98.01-2.34 99.16-2.34L99.16-2.34Q100.73-2.34 100.78-5.06L100.78-5.06ZM115.33-5.36L115.33-5.21Q115.33-2.74 114.22-1.27Q113.12 0.20 111.23 0.20L111.23 0.20Q109.78 0.20 108.84-0.87L108.84-0.87L108.84 4.06L105.55 4.06L105.55-10.57L108.62-10.57L108.72-9.59Q109.67-10.76 111.21-10.76L111.21-10.76Q113.16-10.76 114.25-9.32Q115.33-7.88 115.33-5.36L115.33-5.36ZM112.04-5.06L112.04-5.41Q112.04-8.22 110.40-8.22L110.40-8.22Q109.23-8.22 108.84-7.38L108.84-7.38L108.84-3.22Q109.27-2.34 110.42-2.34L110.42-2.34Q111.99-2.34 112.04-5.06L112.04-5.06Z"></path></g></g></svg>